<!-- Generated by IcoMoon.io -->
<svg version="1.1" xmlns="http://www.w3.org/2000/svg" width="32" height="32" viewBox="0 0 32 32">
<symbol id="linkedin" viewBox="0 0 32 32">

<path fill="#f4f4fd" d="M22.397 22.4v-0.001h0.003v-4.694c0-2.297-0.494-4.066-3.179-4.066-1.291 0-2.157 0.708-2.51 1.38h-0.037v-1.165h-2.546v8.546h2.651v-4.231c0-1.114 0.211-2.192 1.591-2.192 1.36 0 1.38 1.272 1.38 2.263v4.161h2.648z"></path>
<path fill="#f4f4fd" d="M9.811 13.854h2.654v8.546h-2.654v-8.546z"></path>
<path fill="#f4f4fd" d="M11.137 9.6c-0.849 0-1.537 0.689-1.537 1.537s0.688 1.551 1.537 1.551 1.537-0.703 1.537-1.551c-0-0.849-0.689-1.537-1.537-1.537v0z"></path>
</symbol>
</svg>
